<?xml version="1.0" standalone="no"?>
<!DOCTYPE svg PUBLIC "-//W3C//DTD SVG 20010904//EN"
 "http://www.w3.org/TR/2001/REC-SVG-20010904/DTD/svg10.dtd">
<svg version="1.0" xmlns="http://www.w3.org/2000/svg"
 width="1440.000000pt" height="68.000000pt" viewBox="0 0 1440.000000 68.000000"
 preserveAspectRatio="xMidYMid meet">

<g transform="translate(0.000000,68.000000) scale(0.100000,-0.100000)"
fill="#000000" stroke="none">
<path d="M3359 410 l-44 -50 -694 0 -694 1 -29 -27 -28 -28 -28 27 -28 27
-295 0 -295 0 -29 -30 -29 -30 -146 0 -146 0 -49 50 -49 50 -146 0 c-144 0
-147 0 -170 25 l-24 26 -61 -61 -61 -60 -157 0 -157 0 0 -165 0 -165 7200 0
7200 0 0 165 0 165 -1109 0 c-1104 0 -1109 0 -1104 -20 4 -16 0 -20 -21 -20
-28 0 -33 9 -14 28 9 9 8 12 -8 12 -11 0 -33 -14 -49 -30 -16 -17 -36 -30 -44
-30 -9 0 -58 42 -109 93 l-94 92 -42 -48 -42 -47 -694 0 -693 1 -27 -26 c-33
-31 -41 -31 -70 0 l-23 25 -299 0 c-192 0 -298 -4 -298 -10 0 -5 -10 -20 -22
-32 -21 -21 -33 -23 -168 -26 l-145 -3 -50 50 -49 51 -149 0 c-137 0 -150 2
-178 22 l-30 23 -50 -53 -50 -52 -340 0 c-298 0 -339 -2 -339 -15 0 -9 7 -18
15 -21 8 -4 15 -15 15 -26 0 -17 -6 -19 -47 -16 -50 3 -63 17 -38 41 8 9 15
20 15 26 0 8 -179 11 -596 11 l-595 0 -33 -36 c-26 -28 -38 -35 -55 -29 -11 3
-21 10 -21 14 0 4 -25 33 -56 64 -49 51 -60 57 -97 57 -31 0 -48 -7 -69 -27
-15 -15 -28 -33 -28 -40 0 -11 -247 -13 -1375 -13 -1095 0 -1374 -3 -1372 -12
1 -8 -8 -13 -23 -13 -15 0 -24 5 -22 13 4 20 -28 14 -60 -13 -16 -14 -35 -25
-42 -25 -7 0 -46 35 -87 78 -124 127 -110 122 -160 62z m5681 -45 c0 -8 -7
-15 -15 -15 -16 0 -20 12 -8 23 11 12 23 8 23 -8z m60 -20 c0 -24 -5 -35 -15
-35 -10 0 -15 11 -15 35 0 24 5 35 15 35 10 0 15 -11 15 -35z m-8450 -6 c0
-10 -4 -19 -10 -19 -5 0 -10 12 -10 26 0 14 4 23 10 19 6 -3 10 -15 10 -26z
m8550 21 c0 -5 -4 -10 -10 -10 -5 0 -10 5 -10 10 0 6 5 10 10 10 6 0 10 -4 10
-10z m0 -35 c0 -8 -4 -15 -10 -15 -5 0 -10 7 -10 15 0 8 5 15 10 15 6 0 10 -7
10 -15z m-2120 -35 c0 -25 -4 -30 -25 -30 -21 0 -25 5 -25 30 0 25 4 30 25 30
21 0 25 -5 25 -30z m100 0 c0 -20 -5 -30 -15 -30 -15 0 -21 40 -8 53 14 15 23
6 23 -23z m170 0 c0 -25 -4 -30 -25 -30 -21 0 -25 5 -25 30 0 25 4 30 25 30
21 0 25 -5 25 -30z"/>
<path d="M1925 400 c4 -6 11 -8 16 -5 14 9 11 15 -7 15 -8 0 -12 -5 -9 -10z"/>
</g>
</svg>
